<?xml version="1.0" standalone="no"?><!DOCTYPE svg PUBLIC "-//W3C//DTD SVG 1.1//EN" "http://www.w3.org/Graphics/SVG/1.1/DTD/svg11.dtd"><svg t="1668655015868" class="icon" viewBox="0 0 1024 1024" version="1.1" xmlns="http://www.w3.org/2000/svg" p-id="19934" xmlns:xlink="http://www.w3.org/1999/xlink" width="128" height="128"><path d="M314.424889 512c22.641778 0 48.810667 12.856889 69.575111 32.256 23.324444 21.731556 38.001778 49.777778 38.001778 79.758222 0 26.737778-11.662222 51.825778-30.663111 72.362667 3.072 2.275556 5.973333 4.664889 8.874666 7.111111 24.917333 21.731556 40.789333 49.948444 40.789334 80.497778s-15.872 58.766222-40.732445 80.497778c-21.617778 18.830222-48.526222 31.288889-71.509333 31.516444H126.008889V512h188.416z m547.555555 311.978667a36.010667 36.010667 0 0 1 0 72.021333h-263.964444a36.010667 36.010667 0 1 1 0-72.021333h263.964444zM190.008889 735.971556v96.028444H328.248889a18.830222 18.830222 0 0 0 3.413333-0.568889 47.616 47.616 0 0 0 7.68-2.844444 80.213333 80.213333 0 0 0 18.773334-12.344889c12.117333-10.581333 18.830222-22.471111 18.830222-32.256 0-9.671111-6.712889-21.617778-18.830222-32.199111a80.384 80.384 0 0 0-18.830223-12.344889 47.786667 47.786667 0 0 0-7.736889-2.844445 17.806222 17.806222 0 0 0-3.527111-0.568889l-138.069333-0.056888z m124.416-159.971556H190.008889v95.971556h124.586667a39.367111 39.367111 0 0 0 8.760888-3.072c5.688889-2.787556 11.605333-6.940444 16.952889-11.946667 11.377778-10.524444 17.692444-22.641778 17.692445-32.995556 0-10.24-6.371556-22.357333-17.635556-32.938666-5.404444-5.006222-11.377778-9.102222-17.066666-11.946667a39.367111 39.367111 0 0 0-8.874667-3.072z m547.555555 17.976889a36.010667 36.010667 0 0 1 0 72.021333h-263.964444a36.010667 36.010667 0 0 1 0-72.021333h263.964444zM303.616 113.664l0.341333 0.739556 136.988445 292.010666a31.971556 31.971556 0 0 1-57.685334 27.648l-0.227555-0.455111-32.711111-69.688889H198.087111l-33.166222 69.859556a32.028444 32.028444 0 0 1-42.211556 15.36L122.311111 448.853333a32.028444 32.028444 0 0 1-15.36-42.211555l0.227556-0.455111 138.979555-292.010667a32.028444 32.028444 0 0 1 57.514667-0.568889z m558.364444 244.337778a36.010667 36.010667 0 0 1 0 72.021333h-263.964444a36.010667 36.010667 0 1 1 0-72.021333h263.964444zM274.773333 202.865778l-46.193777 97.052444H320.284444l-45.511111-97.052444zM861.980444 128a36.010667 36.010667 0 0 1 0 72.021333h-263.964444a36.010667 36.010667 0 1 1 0-72.021333h263.964444z" p-id="19935" fill="#707070"></path></svg>