<?xml version="1.0" standalone="no"?><!DOCTYPE svg PUBLIC "-//W3C//DTD SVG 1.1//EN" "http://www.w3.org/Graphics/SVG/1.1/DTD/svg11.dtd"><svg t="1690526964642" class="icon" viewBox="0 0 1024 1024" version="1.1" xmlns="http://www.w3.org/2000/svg" p-id="7214" xmlns:xlink="http://www.w3.org/1999/xlink" width="64" height="64"><path d="M519.6 109h-30.9c-57.3 0-113 11.3-165.3 33.5-50.6 21.4-96 52.1-135 91.2s-69.6 84.6-91 135.2C75.2 421.3 64 477.1 64 534.5c0 57.4 11.2 113.2 33.4 165.6 21.4 50.7 52 96.2 91 135.2s84.4 69.8 135 91.2c52.4 22.2 108 33.5 165.3 33.5 57.3 0 113-11.3 165.3-33.5 50.6-21.4 96-52.1 135-91.2s69.6-84.6 91-135.2c22.1-52.5 33.4-108.2 33.4-165.6v-30.9H519.6V109z" fill="#707070" p-id="7215"></path><path d="M580.5 64l-0.9 379.4H960C960 261.3 789.6 64 580.5 64z" fill="#707070" p-id="7216"></path></svg>