<?xml version="1.0" standalone="no"?><!DOCTYPE svg PUBLIC "-//W3C//DTD SVG 1.1//EN" "http://www.w3.org/Graphics/SVG/1.1/DTD/svg11.dtd"><svg t="1690526581194" class="icon" viewBox="0 0 1024 1024" version="1.1" xmlns="http://www.w3.org/2000/svg" p-id="2354" width="64" height="64" xmlns:xlink="http://www.w3.org/1999/xlink"><path d="M870.4 921.6H153.6V204.8a51.2 51.2 0 0 0-102.4 0v768a51.2 51.2 0 0 0 51.2 51.2h768a51.2 51.2 0 0 0 0-102.4z" fill="#707070" p-id="2355"></path><path d="M307.2 358.4a51.2 51.2 0 0 1 51.2 51.2v358.4a51.2 51.2 0 0 1-102.4 0V409.6a51.2 51.2 0 0 1 51.2-51.2zM512 512a51.2 51.2 0 0 1 51.2 51.2v204.8a51.2 51.2 0 1 1-102.4 0v-204.8a51.2 51.2 0 0 1 51.2-51.2zM716.8 614.4a51.2 51.2 0 0 1 51.2 51.2v102.4a51.2 51.2 0 1 1-102.3488 0v-102.4A51.1488 51.1488 0 0 1 716.8 614.4zM716.8 0a256 256 0 1 0 0.0512 512.0512A256 256 0 0 0 716.8 0z m0 409.6a153.6 153.6 0 1 1 0-307.2 153.6 153.6 0 0 1 0 307.2z" fill="#707070" p-id="2356"></path><path d="M691.2 153.6a25.6 25.6 0 0 1 25.6 25.6v102.4a25.6 25.6 0 0 1-51.2 0v-102.4a25.6 25.6 0 0 1 25.6-25.6z" fill="#707070" p-id="2357"></path><path d="M691.2 256h51.2a25.6 25.6 0 0 1 0 51.2h-51.2a25.6 25.6 0 0 1 0-51.2z" fill="#707070" p-id="2358"></path></svg>